# MagicaVoxel @ Ephtracy

# group
o 

# material
mtllib Tile.mtl
usemtl palette

# normals
vn -1 0 0
vn 1 0 0
vn 0 0 1
vn 0 0 -1
vn 0 -1 0
vn 0 1 0

# texcoords
vt 0.537109 0.5
vt 0.724609 0.5
vt 0.748047 0.5

# verts
v -0.5 0 0.5
v -0.5 0 -0.5
v -0.5 0.4 0.5
v -0.5 0.4 0.4
v -0.5 0.5 0.5
v -0.5 0.5 0.4
v -0.5 0.5 0.3
v -0.5 0.5 0.2
v -0.5 0.5 -0.3
v -0.5 0.5 -0.4
v -0.5 0.5 -0.5
v -0.5 0.6 0.3
v -0.5 0.6 0.2
v -0.5 0.6 -0.3
v -0.5 0.6 -0.4
v -0.5 0.7 -0.4
v -0.5 0.7 -0.5
v -0.5 0.8 -0.4
v -0.5 0.8 -0.5
v -0.5 1 0.5
v -0.5 1 -0.5
v 0.5 0 0.5
v 0.5 0 -0.5
v 0.5 0.4 0.4
v 0.5 0.4 0.3
v 0.5 0.4 -0.3
v 0.5 0.4 -0.4
v 0.5 0.5 0.4
v 0.5 0.5 0.3
v 0.5 0.5 0.2
v 0.5 0.5 0
v 0.5 0.5 -0.2
v 0.5 0.5 -0.3
v 0.5 0.5 -0.4
v 0.5 0.5 -0.5
v 0.5 0.6 0.5
v 0.5 0.6 0.4
v 0.5 0.6 0.3
v 0.5 0.6 0.2
v 0.5 0.6 0.1
v 0.5 0.6 0
v 0.5 0.6 -0.2
v 0.5 0.6 -0.4
v 0.5 0.6 -0.5
v 0.5 0.7 0.1
v 0.5 0.7 0
v 0.5 0.7 -0.3
v 0.5 0.7 -0.4
v 0.5 0.8 0.4
v 0.5 0.8 0.3
v 0.5 0.8 0.2
v 0.5 0.8 0.1
v 0.5 0.8 -0.3
v 0.5 0.8 -0.4
v 0.5 0.8 -0.5
v 0.5 0.9 0.4
v 0.5 0.9 0.3
v 0.5 0.9 0.2
v 0.5 0.9 0.1
v 0.5 0.9 -0.4
v 0.5 0.9 -0.5
v 0.5 1 0.5
v 0.5 1 0.4
v 0.5 1 0.3
v 0.5 1 -0.5
v -0.5 0 0.5
v -0.5 0.4 0.5
v -0.5 0.5 0.5
v -0.5 1 0.5
v -0.4 0.4 0.5
v -0.4 0.5 0.5
v -0.4 0.7 0.5
v -0.3 0.5 0.5
v -0.3 0.6 0.5
v -0.3 0.7 0.5
v -0.2 0.9 0.5
v -0.2 1 0.5
v -0.1 0.9 0.5
v -0.1 1 0.5
v 0 0.5 0.5
v 0 0.6 0.5
v 0.1 0.5 0.5
v 0.1 0.6 0.5
v 0.2 0.5 0.5
v 0.2 0.6 0.5
v 0.2 0.8 0.5
v 0.2 0.9 0.5
v 0.3 0.4 0.5
v 0.3 0.5 0.5
v 0.3 0.6 0.5
v 0.3 0.8 0.5
v 0.3 0.9 0.5
v 0.4 0.4 0.5
v 0.4 0.5 0.5
v 0.4 0.6 0.5
v 0.5 0 0.5
v 0.5 0.6 0.5
v 0.5 1 0.5
v -0.5 0 -0.5
v -0.5 0.5 -0.5
v -0.5 0.7 -0.5
v -0.5 0.8 -0.5
v -0.5 1 -0.5
v -0.4 0.5 -0.5
v -0.4 0.6 -0.5
v -0.4 0.7 -0.5
v -0.4 0.8 -0.5
v -0.4 0.9 -0.5
v -0.3 0.5 -0.5
v -0.3 0.6 -0.5
v -0.3 0.7 -0.5
v -0.3 0.8 -0.5
v -0.3 0.9 -0.5
v -0.2 0.4 -0.5
v -0.2 0.5 -0.5
v -0.2 0.6 -0.5
v -0.2 0.7 -0.5
v -0.1 0.5 -0.5
v -0.1 0.6 -0.5
v -0.1 0.7 -0.5
v -0.1 0.8 -0.5
v -0.1 0.9 -0.5
v 0 0.4 -0.5
v 0 0.6 -0.5
v 0 0.7 -0.5
v 0 0.8 -0.5
v 0 0.9 -0.5
v 0.1 0.4 -0.5
v 0.1 0.6 -0.5
v 0.2 0.4 -0.5
v 0.2 0.5 -0.5
v 0.3 0.5 -0.5
v 0.3 0.6 -0.5
v 0.4 0.5 -0.5
v 0.4 0.6 -0.5
v 0.4 0.8 -0.5
v 0.4 0.9 -0.5
v 0.5 0 -0.5
v 0.5 0.5 -0.5
v 0.5 0.6 -0.5
v 0.5 0.8 -0.5
v 0.5 0.9 -0.5
v 0.5 1 -0.5
v -0.5 0 0.5
v 0.5 0 0.5
v -0.5 0 -0.5
v 0.5 0 -0.5
v -0.5 1 0.5
v -0.2 1 0.5
v -0.1 1 0.5
v 0.5 1 0.5
v -0.1 1 0.4
v 0.1 1 0.4
v 0.4 1 0.4
v 0.5 1 0.4
v -0.4 1 0.3
v -0.3 1 0.3
v -0.2 1 0.3
v 0.1 1 0.3
v 0.4 1 0.3
v 0.5 1 0.3
v -0.4 1 0.2
v -0.3 1 0.2
v 0.1 1 0.2
v 0.2 1 0.2
v 0.3 1 0.2
v 0.4 1 0.2
v -0.4 1 0.1
v -0.3 1 0.1
v 0.1 1 0.1
v 0.2 1 0.1
v 0.3 1 0.1
v 0.4 1 0.1
v -0.4 1 0
v -0.3 1 0
v -0.2 1 0
v -0.1 1 0
v 0.2 1 0
v 0.3 1 0
v -0.2 1 -0.1
v -0.1 1 -0.1
v 0.2 1 -0.2
v 0.3 1 -0.2
v -0.3 1 -0.3
v -0.1 1 -0.3
v 0 1 -0.3
v 0.1 1 -0.3
v 0.3 1 -0.3
v 0.4 1 -0.3
v -0.3 1 -0.4
v -0.1 1 -0.4
v 0 1 -0.4
v 0.1 1 -0.4
v 0.3 1 -0.4
v 0.4 1 -0.4
v -0.5 1 -0.5
v 0.5 1 -0.5

# faces
f 3/1/1 2/1/1 1/1/1
f 4/1/1 2/1/1 3/1/1
f 5/3/1 4/3/1 3/3/1
f 6/1/1 2/1/1 4/1/1
f 6/3/1 4/3/1 5/3/1
f 7/1/1 2/1/1 6/1/1
f 8/1/1 2/1/1 7/1/1
f 9/1/1 2/1/1 8/1/1
f 10/1/1 2/1/1 9/1/1
f 11/1/1 2/1/1 10/1/1
f 12/2/1 6/2/1 5/2/1
f 12/2/1 7/2/1 6/2/1
f 12/1/1 8/1/1 7/1/1
f 13/2/1 9/2/1 8/2/1
f 13/1/1 8/1/1 12/1/1
f 14/1/1 10/1/1 9/1/1
f 14/2/1 9/2/1 13/2/1
f 15/2/1 11/2/1 10/2/1
f 15/1/1 10/1/1 14/1/1
f 16/2/1 14/2/1 13/2/1
f 16/2/1 11/2/1 15/2/1
f 16/2/1 15/2/1 14/2/1
f 16/2/1 13/2/1 12/2/1
f 17/2/1 11/2/1 16/2/1
f 18/2/1 16/2/1 12/2/1
f 18/3/1 17/3/1 16/3/1
f 19/3/1 17/3/1 18/3/1
f 20/2/1 12/2/1 5/2/1
f 20/2/1 18/2/1 12/2/1
f 20/2/1 19/2/1 18/2/1
f 21/2/1 19/2/1 20/2/1
f 22/1/2 23/1/2 24/1/2
f 24/1/2 23/1/2 25/1/2
f 25/1/2 23/1/2 26/1/2
f 26/1/2 23/1/2 27/1/2
f 22/1/2 24/1/2 28/1/2
f 24/3/2 25/3/2 28/3/2
f 25/1/2 26/1/2 29/1/2
f 28/3/2 25/3/2 29/3/2
f 29/1/2 26/1/2 30/1/2
f 30/1/2 26/1/2 31/1/2
f 31/1/2 26/1/2 32/1/2
f 26/2/2 27/2/2 33/2/2
f 32/1/2 26/1/2 33/1/2
f 27/1/2 23/1/2 34/1/2
f 33/2/2 27/2/2 34/2/2
f 34/1/2 23/1/2 35/1/2
f 22/1/2 28/1/2 36/1/2
f 28/2/2 29/2/2 37/2/2
f 36/1/2 28/1/2 37/1/2
f 29/1/2 30/1/2 38/1/2
f 37/2/2 29/2/2 38/2/2
f 30/2/2 31/2/2 39/2/2
f 38/1/2 30/1/2 39/1/2
f 39/2/2 31/2/2 40/2/2
f 31/1/2 32/1/2 41/1/2
f 40/2/2 31/2/2 41/2/2
f 32/2/2 33/2/2 42/2/2
f 41/1/2 32/1/2 42/1/2
f 33/2/2 34/2/2 42/2/2
f 34/3/2 35/3/2 43/3/2
f 42/2/2 34/2/2 43/2/2
f 43/3/2 35/3/2 44/3/2
f 40/3/2 41/3/2 45/3/2
f 39/2/2 40/2/2 45/2/2
f 38/2/2 39/2/2 45/2/2
f 43/2/2 44/2/2 46/2/2
f 45/3/2 41/3/2 46/3/2
f 42/2/2 43/2/2 46/2/2
f 41/2/2 42/2/2 46/2/2
f 46/2/2 44/2/2 47/2/2
f 47/2/2 44/2/2 48/2/2
f 36/2/2 37/2/2 49/2/2
f 37/3/2 38/3/2 49/3/2
f 38/2/2 45/2/2 50/2/2
f 49/3/2 38/3/2 50/3/2
f 45/2/2 46/2/2 50/2/2
f 46/2/2 47/2/2 50/2/2
f 50/2/2 47/2/2 51/2/2
f 51/2/2 47/2/2 52/2/2
f 47/3/2 48/3/2 53/3/2
f 52/2/2 47/2/2 53/2/2
f 48/2/2 44/2/2 54/2/2
f 53/3/2 48/3/2 54/3/2
f 54/2/2 44/2/2 55/2/2
f 36/2/2 49/2/2 56/2/2
f 49/2/2 50/2/2 56/2/2
f 50/2/2 51/2/2 56/2/2
f 56/2/2 51/2/2 57/2/2
f 51/3/2 52/3/2 58/3/2
f 57/2/2 51/2/2 58/2/2
f 52/2/2 53/2/2 59/2/2
f 58/3/2 52/3/2 59/3/2
f 53/2/2 54/2/2 59/2/2
f 54/3/2 55/3/2 60/3/2
f 59/2/2 54/2/2 60/2/2
f 60/3/2 55/3/2 61/3/2
f 36/2/2 56/2/2 62/2/2
f 56/3/2 57/3/2 63/3/2
f 62/2/2 56/2/2 63/2/2
f 57/2/2 58/2/2 64/2/2
f 63/3/2 57/3/2 64/3/2
f 58/2/2 59/2/2 64/2/2
f 60/2/2 61/2/2 64/2/2
f 59/2/2 60/2/2 64/2/2
f 64/2/2 61/2/2 65/2/2
f 70/1/3 67/1/3 66/1/3
f 70/3/3 68/3/3 67/3/3
f 71/2/3 69/2/3 68/2/3
f 71/3/3 68/3/3 70/3/3
f 72/2/3 69/2/3 71/2/3
f 73/1/3 71/1/3 70/1/3
f 73/3/3 72/3/3 71/3/3
f 74/3/3 72/3/3 73/3/3
f 75/2/3 69/2/3 72/2/3
f 75/3/3 72/3/3 74/3/3
f 76/2/3 75/2/3 74/2/3
f 76/2/3 69/2/3 75/2/3
f 77/2/3 69/2/3 76/2/3
f 78/2/3 76/2/3 74/2/3
f 78/3/3 77/3/3 76/3/3
f 79/3/3 77/3/3 78/3/3
f 80/1/3 74/1/3 73/1/3
f 80/1/3 73/1/3 70/1/3
f 81/2/3 79/2/3 78/2/3
f 81/1/3 74/1/3 80/1/3
f 81/2/3 78/2/3 74/2/3
f 82/1/3 80/1/3 70/1/3
f 82/3/3 81/3/3 80/3/3
f 83/2/3 79/2/3 81/2/3
f 83/3/3 81/3/3 82/3/3
f 84/1/3 82/1/3 70/1/3
f 84/1/3 83/1/3 82/1/3
f 85/2/3 79/2/3 83/2/3
f 85/1/3 83/1/3 84/1/3
f 86/2/3 79/2/3 85/2/3
f 87/2/3 79/2/3 86/2/3
f 88/1/3 70/1/3 66/1/3
f 88/1/3 84/1/3 70/1/3
f 89/3/3 85/3/3 84/3/3
f 89/1/3 84/1/3 88/1/3
f 90/2/3 86/2/3 85/2/3
f 90/3/3 85/3/3 89/3/3
f 91/3/3 87/3/3 86/3/3
f 91/2/3 86/2/3 90/2/3
f 92/2/3 79/2/3 87/2/3
f 92/3/3 87/3/3 91/3/3
f 93/1/3 88/1/3 66/1/3
f 93/3/3 89/3/3 88/3/3
f 94/2/3 91/2/3 90/2/3
f 94/3/3 89/3/3 93/3/3
f 94/2/3 90/2/3 89/2/3
f 94/2/3 92/2/3 91/2/3
f 95/2/3 92/2/3 94/2/3
f 96/1/3 93/1/3 66/1/3
f 96/1/3 94/1/3 93/1/3
f 96/1/3 95/1/3 94/1/3
f 97/2/3 92/2/3 95/2/3
f 97/1/3 95/1/3 96/1/3
f 98/2/3 79/2/3 92/2/3
f 98/2/3 92/2/3 97/2/3
f 99/1/4 100/1/4 104/1/4
f 100/2/4 101/2/4 104/2/4
f 104/2/4 101/2/4 105/2/4
f 101/3/4 102/3/4 106/3/4
f 105/2/4 101/2/4 106/2/4
f 102/2/4 103/2/4 107/2/4
f 106/3/4 102/3/4 107/3/4
f 107/2/4 103/2/4 108/2/4
f 104/1/4 105/1/4 109/1/4
f 99/1/4 104/1/4 109/1/4
f 105/2/4 106/2/4 110/2/4
f 109/1/4 105/1/4 110/1/4
f 106/2/4 107/2/4 110/2/4
f 110/2/4 107/2/4 111/2/4
f 107/3/4 108/3/4 112/3/4
f 111/2/4 107/2/4 112/2/4
f 108/2/4 103/2/4 113/2/4
f 112/3/4 108/3/4 113/3/4
f 99/1/4 109/1/4 114/1/4
f 109/2/4 110/2/4 115/2/4
f 114/1/4 109/1/4 115/1/4
f 110/3/4 111/3/4 116/3/4
f 115/2/4 110/2/4 116/2/4
f 111/2/4 112/2/4 117/2/4
f 116/3/4 111/3/4 117/3/4
f 112/2/4 113/2/4 117/2/4
f 115/3/4 116/3/4 118/3/4
f 114/2/4 115/2/4 118/2/4
f 116/2/4 117/2/4 119/2/4
f 118/3/4 116/3/4 119/3/4
f 117/2/4 113/2/4 120/2/4
f 119/2/4 117/2/4 120/2/4
f 120/2/4 113/2/4 121/2/4
f 113/2/4 103/2/4 122/2/4
f 121/2/4 113/2/4 122/2/4
f 118/2/4 119/2/4 123/2/4
f 114/2/4 118/2/4 123/2/4
f 99/1/4 114/1/4 123/1/4
f 119/3/4 120/3/4 124/3/4
f 123/2/4 119/2/4 124/2/4
f 120/2/4 121/2/4 125/2/4
f 124/3/4 120/3/4 125/3/4
f 121/3/4 122/3/4 126/3/4
f 125/2/4 121/2/4 126/2/4
f 122/2/4 103/2/4 127/2/4
f 126/3/4 122/3/4 127/3/4
f 123/1/4 124/1/4 128/1/4
f 99/1/4 123/1/4 128/1/4
f 125/2/4 126/2/4 129/2/4
f 128/1/4 124/1/4 129/1/4
f 124/2/4 125/2/4 129/2/4
f 126/2/4 127/2/4 129/2/4
f 99/1/4 128/1/4 130/1/4
f 128/2/4 129/2/4 130/2/4
f 130/2/4 129/2/4 131/2/4
f 130/1/4 131/1/4 132/1/4
f 131/2/4 129/2/4 132/2/4
f 129/2/4 127/2/4 133/2/4
f 132/2/4 129/2/4 133/2/4
f 130/1/4 132/1/4 134/1/4
f 132/1/4 133/1/4 134/1/4
f 133/2/4 127/2/4 135/2/4
f 134/1/4 133/1/4 135/1/4
f 135/2/4 127/2/4 136/2/4
f 127/2/4 103/2/4 137/2/4
f 136/2/4 127/2/4 137/2/4
f 130/1/4 134/1/4 138/1/4
f 99/1/4 130/1/4 138/1/4
f 134/3/4 135/3/4 139/3/4
f 138/1/4 134/1/4 139/1/4
f 135/2/4 136/2/4 140/2/4
f 139/3/4 135/3/4 140/3/4
f 136/3/4 137/3/4 141/3/4
f 140/2/4 136/2/4 141/2/4
f 137/2/4 103/2/4 142/2/4
f 141/3/4 137/3/4 142/3/4
f 142/2/4 103/2/4 143/2/4
f 146/1/5 145/1/5 144/1/5
f 147/1/5 145/1/5 146/1/5
f 149/3/6 150/3/6 152/3/6
f 150/2/6 151/2/6 152/2/6
f 152/2/6 151/2/6 153/2/6
f 153/2/6 151/2/6 154/2/6
f 154/2/6 151/2/6 155/2/6
f 148/2/6 149/2/6 156/2/6
f 156/2/6 149/2/6 157/2/6
f 149/3/6 152/3/6 158/3/6
f 157/2/6 149/2/6 158/2/6
f 152/3/6 153/3/6 158/3/6
f 153/2/6 154/2/6 159/2/6
f 158/3/6 153/3/6 159/3/6
f 154/3/6 155/3/6 160/3/6
f 159/2/6 154/2/6 160/2/6
f 160/3/6 155/3/6 161/3/6
f 156/3/6 157/3/6 162/3/6
f 148/2/6 156/2/6 162/2/6
f 160/2/6 161/2/6 163/2/6
f 162/3/6 157/3/6 163/3/6
f 157/2/6 158/2/6 163/2/6
f 159/2/6 160/2/6 163/2/6
f 158/2/6 159/2/6 163/2/6
f 163/2/6 161/2/6 164/2/6
f 164/2/6 161/2/6 165/2/6
f 165/2/6 161/2/6 166/2/6
f 166/2/6 161/2/6 167/2/6
f 148/2/6 162/2/6 168/2/6
f 162/2/6 163/2/6 168/2/6
f 163/2/6 164/2/6 168/2/6
f 168/2/6 164/2/6 169/2/6
f 164/3/6 165/3/6 170/3/6
f 169/2/6 164/2/6 170/2/6
f 165/2/6 166/2/6 171/2/6
f 170/3/6 165/3/6 171/3/6
f 166/3/6 167/3/6 172/3/6
f 171/2/6 166/2/6 172/2/6
f 167/2/6 161/2/6 173/2/6
f 172/3/6 167/3/6 173/3/6
f 168/3/6 169/3/6 174/3/6
f 148/2/6 168/2/6 174/2/6
f 171/2/6 172/2/6 175/2/6
f 174/3/6 169/3/6 175/3/6
f 170/2/6 171/2/6 175/2/6
f 172/2/6 173/2/6 175/2/6
f 169/2/6 170/2/6 175/2/6
f 175/2/6 173/2/6 176/2/6
f 176/2/6 173/2/6 177/2/6
f 177/2/6 173/2/6 178/2/6
f 178/2/6 173/2/6 179/2/6
f 174/2/6 175/2/6 180/2/6
f 175/2/6 176/2/6 180/2/6
f 176/3/6 177/3/6 180/3/6
f 177/2/6 178/2/6 181/2/6
f 180/3/6 177/3/6 181/3/6
f 178/3/6 179/3/6 182/3/6
f 181/2/6 178/2/6 182/2/6
f 180/2/6 181/2/6 182/2/6
f 179/2/6 173/2/6 183/2/6
f 182/3/6 179/3/6 183/3/6
f 180/2/6 182/2/6 184/2/6
f 174/2/6 180/2/6 184/2/6
f 182/2/6 183/2/6 184/2/6
f 184/2/6 183/2/6 185/2/6
f 185/2/6 183/2/6 186/2/6
f 186/2/6 183/2/6 187/2/6
f 183/2/6 173/2/6 188/2/6
f 187/2/6 183/2/6 188/2/6
f 173/2/6 161/2/6 189/2/6
f 188/2/6 173/2/6 189/2/6
f 174/2/6 184/2/6 190/2/6
f 184/3/6 185/3/6 190/3/6
f 185/2/6 186/2/6 191/2/6
f 190/3/6 185/3/6 191/3/6
f 186/3/6 187/3/6 192/3/6
f 191/2/6 186/2/6 192/2/6
f 187/2/6 188/2/6 193/2/6
f 192/3/6 187/3/6 193/3/6
f 188/3/6 189/3/6 194/3/6
f 193/2/6 188/2/6 194/2/6
f 189/2/6 161/2/6 195/2/6
f 194/3/6 189/3/6 195/3/6
f 148/2/6 174/2/6 196/2/6
f 191/2/6 192/2/6 196/2/6
f 194/2/6 195/2/6 196/2/6
f 174/2/6 190/2/6 196/2/6
f 192/2/6 193/2/6 196/2/6
f 193/2/6 194/2/6 196/2/6
f 190/2/6 191/2/6 196/2/6
f 195/2/6 161/2/6 197/2/6
f 196/2/6 195/2/6 197/2/6
