# MagicaVoxel @ Ephtracy

# group
o 

# material
mtllib Missile.mtl
usemtl palette

# normals
vn -1 0 0
vn 1 0 0
vn 0 0 1
vn 0 0 -1
vn 0 -1 0
vn 0 1 0

# texcoords
vt 0.0136719 0.5
vt 0.841797 0.5
vt 0.986328 0.5
vt 0.990234 0.5

# verts
v -0.5 0.4 0.7
v -0.5 0.4 -0.8
v -0.5 0.5 0.8
v -0.5 0.5 0.7
v -0.5 0.6 0.9
v -0.5 0.6 0.8
v -0.5 0.7 1
v -0.5 0.7 0.9
v -0.5 1.2 1
v -0.5 1.2 0.9
v -0.5 1.3 0.9
v -0.5 1.3 0.8
v -0.5 1.3 -0.8
v -0.5 1.4 0.8
v -0.5 1.4 -0.8
v -0.4 0.4 0.8
v -0.4 0.4 0.7
v -0.4 0.5 0.9
v -0.4 0.5 0.8
v -0.4 0.5 0.7
v -0.4 0.5 -0.8
v -0.4 0.5 -0.9
v -0.4 0.6 1
v -0.4 0.6 0.9
v -0.4 0.6 0.8
v -0.4 0.6 -0.9
v -0.4 0.6 -1
v -0.4 0.7 1
v -0.4 0.7 0.9
v -0.4 1.2 1
v -0.4 1.2 0.9
v -0.4 1.2 -0.9
v -0.4 1.2 -1
v -0.4 1.3 1
v -0.4 1.3 0.9
v -0.4 1.3 0.8
v -0.4 1.3 -0.8
v -0.4 1.3 -0.9
v -0.4 1.4 0.9
v -0.4 1.4 0.8
v -0.3 0.4 0.9
v -0.3 0.4 0.8
v -0.3 0.5 1
v -0.3 0.5 0.9
v -0.3 0.5 0.8
v -0.3 0.5 -0.9
v -0.3 0.5 -1
v -0.3 0.6 1
v -0.3 0.6 0.9
v -0.3 0.6 -0.9
v -0.3 0.6 -1
v -0.3 1.2 -0.9
v -0.3 1.2 -1
v -0.3 1.3 1
v -0.3 1.3 0.9
v -0.3 1.3 -0.9
v -0.3 1.3 -1
v -0.3 1.4 1
v -0.3 1.4 0.9
v -0.2 0.4 1
v -0.2 0.4 0.9
v -0.2 0.5 1
v -0.2 0.5 0.9
v 0.1 0.4 1
v 0.1 0.4 0.9
v 0.1 0.5 1
v 0.1 0.5 0.9
v 0.1 1.3 1
v 0.1 1.3 0.9
v 0.1 1.4 1
v 0.1 1.4 0.9
v 0.2 0.4 0.9
v 0.2 0.4 0.8
v 0.2 0.5 1
v 0.2 0.5 0.9
v 0.2 0.5 0.8
v 0.2 0.5 -0.9
v 0.2 0.5 -1
v 0.2 0.6 1
v 0.2 0.6 0.9
v 0.2 0.6 -0.9
v 0.2 0.6 -1
v 0.2 1.2 1
v 0.2 1.2 0.9
v 0.2 1.2 -0.9
v 0.2 1.2 -1
v 0.2 1.3 1
v 0.2 1.3 0.9
v 0.2 1.3 0.8
v 0.2 1.3 -0.9
v 0.2 1.3 -1
v 0.2 1.4 0.9
v 0.2 1.4 0.8
v 0.3 0.4 0.8
v 0.3 0.4 0.7
v 0.3 0.5 0.9
v 0.3 0.5 0.8
v 0.3 0.5 0.7
v 0.3 0.5 -0.8
v 0.3 0.5 -0.9
v 0.3 0.6 1
v 0.3 0.6 0.9
v 0.3 0.6 0.8
v 0.3 0.6 -0.9
v 0.3 0.6 -1
v 0.3 0.7 1
v 0.3 0.7 0.9
v 0.3 1.1 1
v 0.3 1.1 0.9
v 0.3 1.2 1
v 0.3 1.2 0.9
v 0.3 1.2 0.8
v 0.3 1.2 -0.9
v 0.3 1.2 -1
v 0.3 1.3 0.9
v 0.3 1.3 0.8
v 0.3 1.3 0.7
v 0.3 1.3 -0.8
v 0.3 1.3 -0.9
v 0.3 1.4 0.8
v 0.3 1.4 0.7
v 0.4 0.4 0.7
v 0.4 0.4 -0.8
v 0.4 0.5 0.8
v 0.4 0.5 0.7
v 0.4 0.6 0.9
v 0.4 0.6 0.8
v 0.4 0.7 1
v 0.4 0.7 0.9
v 0.4 1.1 1
v 0.4 1.1 0.9
v 0.4 1.2 0.9
v 0.4 1.2 0.8
v 0.4 1.3 0.8
v 0.4 1.3 0.7
v 0.4 1.4 0.7
v 0.4 1.4 -0.8
v -0.5 0.7 1
v -0.5 1.2 1
v -0.4 0.6 1
v -0.4 0.7 1
v -0.4 1.2 1
v -0.4 1.3 1
v -0.3 0.5 1
v -0.3 0.6 1
v -0.3 1.3 1
v -0.3 1.4 1
v -0.2 0.4 1
v -0.2 0.5 1
v 0.1 0.4 1
v 0.1 0.5 1
v 0.1 1.3 1
v 0.1 1.4 1
v 0.2 0.5 1
v 0.2 0.6 1
v 0.2 1.2 1
v 0.2 1.3 1
v 0.3 0.6 1
v 0.3 0.7 1
v 0.3 1.1 1
v 0.3 1.2 1
v 0.4 0.7 1
v 0.4 1.1 1
v -0.5 0.6 0.9
v -0.5 0.7 0.9
v -0.5 1.2 0.9
v -0.5 1.3 0.9
v -0.4 0.5 0.9
v -0.4 0.6 0.9
v -0.4 0.7 0.9
v -0.4 1.2 0.9
v -0.4 1.3 0.9
v -0.4 1.4 0.9
v -0.3 0.4 0.9
v -0.3 0.5 0.9
v -0.3 0.6 0.9
v -0.3 1.3 0.9
v -0.3 1.4 0.9
v -0.2 0.4 0.9
v -0.2 0.5 0.9
v 0.1 0.4 0.9
v 0.1 0.5 0.9
v 0.1 1.3 0.9
v 0.1 1.4 0.9
v 0.2 0.4 0.9
v 0.2 0.5 0.9
v 0.2 0.6 0.9
v 0.2 1.2 0.9
v 0.2 1.3 0.9
v 0.2 1.4 0.9
v 0.3 0.5 0.9
v 0.3 0.6 0.9
v 0.3 0.7 0.9
v 0.3 1.1 0.9
v 0.3 1.2 0.9
v 0.3 1.3 0.9
v 0.4 0.6 0.9
v 0.4 0.7 0.9
v 0.4 1.1 0.9
v 0.4 1.2 0.9
v -0.5 0.5 0.8
v -0.5 0.6 0.8
v -0.5 1.3 0.8
v -0.5 1.4 0.8
v -0.4 0.4 0.8
v -0.4 0.5 0.8
v -0.4 0.6 0.8
v -0.4 1.3 0.8
v -0.4 1.4 0.8
v -0.3 0.4 0.8
v -0.3 0.5 0.8
v 0.2 0.4 0.8
v 0.2 0.5 0.8
v 0.2 1.3 0.8
v 0.2 1.4 0.8
v 0.3 0.4 0.8
v 0.3 0.5 0.8
v 0.3 0.6 0.8
v 0.3 1.2 0.8
v 0.3 1.3 0.8
v 0.3 1.4 0.8
v 0.4 0.5 0.8
v 0.4 0.6 0.8
v 0.4 1.2 0.8
v 0.4 1.3 0.8
v -0.5 0.4 0.7
v -0.5 0.5 0.7
v -0.4 0.4 0.7
v -0.4 0.5 0.7
v 0.3 0.4 0.7
v 0.3 0.5 0.7
v 0.3 1.3 0.7
v 0.3 1.4 0.7
v 0.4 0.4 0.7
v 0.4 0.5 0.7
v 0.4 1.3 0.7
v 0.4 1.4 0.7
v -0.5 0.4 -0.8
v -0.5 1.3 -0.8
v -0.5 1.4 -0.8
v -0.4 0.5 -0.8
v -0.4 1.3 -0.8
v -0.4 1.4 -0.8
v 0.3 0.5 -0.8
v 0.3 1.3 -0.8
v 0.4 0.4 -0.8
v 0.4 1.4 -0.8
v -0.4 0.5 -0.9
v -0.4 0.6 -0.9
v -0.4 1.2 -0.9
v -0.4 1.3 -0.9
v -0.3 0.5 -0.9
v -0.3 0.6 -0.9
v -0.3 1.2 -0.9
v -0.3 1.3 -0.9
v 0.2 0.5 -0.9
v 0.2 0.6 -0.9
v 0.2 1.2 -0.9
v 0.2 1.3 -0.9
v 0.3 0.5 -0.9
v 0.3 0.6 -0.9
v 0.3 1.2 -0.9
v 0.3 1.3 -0.9
v -0.4 0.6 -1
v -0.4 1.2 -1
v -0.3 0.5 -1
v -0.3 0.6 -1
v -0.3 0.7 -1
v -0.3 0.8 -1
v -0.3 1.2 -1
v -0.3 1.3 -1
v -0.2 0.7 -1
v -0.2 0.8 -1
v -0.2 1 -1
v -0.2 1.1 -1
v -0.1 0.8 -1
v -0.1 0.9 -1
v -0.1 1 -1
v -0.1 1.1 -1
v 0 0.8 -1
v 0 0.9 -1
v 0.1 0.6 -1
v 0.1 0.7 -1
v 0.1 1 -1
v 0.1 1.1 -1
v 0.2 0.5 -1
v 0.2 0.6 -1
v 0.2 0.7 -1
v 0.2 1 -1
v 0.2 1.1 -1
v 0.2 1.2 -1
v 0.2 1.3 -1
v 0.3 0.6 -1
v 0.3 1.2 -1
v -0.2 0.4 1
v 0.1 0.4 1
v -0.3 0.4 0.9
v -0.2 0.4 0.9
v 0.1 0.4 0.9
v 0.2 0.4 0.9
v -0.4 0.4 0.8
v -0.3 0.4 0.8
v 0.2 0.4 0.8
v 0.3 0.4 0.8
v -0.5 0.4 0.7
v -0.4 0.4 0.7
v 0.3 0.4 0.7
v 0.4 0.4 0.7
v -0.5 0.4 -0.8
v 0.4 0.4 -0.8
v -0.3 0.5 1
v -0.2 0.5 1
v 0.1 0.5 1
v 0.2 0.5 1
v -0.4 0.5 0.9
v -0.3 0.5 0.9
v -0.2 0.5 0.9
v 0.1 0.5 0.9
v 0.2 0.5 0.9
v 0.3 0.5 0.9
v -0.5 0.5 0.8
v -0.4 0.5 0.8
v -0.3 0.5 0.8
v 0.2 0.5 0.8
v 0.3 0.5 0.8
v 0.4 0.5 0.8
v -0.5 0.5 0.7
v -0.4 0.5 0.7
v 0.3 0.5 0.7
v 0.4 0.5 0.7
v -0.4 0.5 -0.8
v 0.3 0.5 -0.8
v -0.4 0.5 -0.9
v -0.3 0.5 -0.9
v 0.2 0.5 -0.9
v 0.3 0.5 -0.9
v -0.3 0.5 -1
v 0.2 0.5 -1
v -0.4 0.6 1
v -0.3 0.6 1
v 0.2 0.6 1
v 0.3 0.6 1
v -0.5 0.6 0.9
v -0.4 0.6 0.9
v -0.3 0.6 0.9
v 0.2 0.6 0.9
v 0.3 0.6 0.9
v 0.4 0.6 0.9
v -0.5 0.6 0.8
v -0.4 0.6 0.8
v 0.3 0.6 0.8
v 0.4 0.6 0.8
v -0.4 0.6 -0.9
v -0.3 0.6 -0.9
v 0.2 0.6 -0.9
v 0.3 0.6 -0.9
v -0.4 0.6 -1
v -0.3 0.6 -1
v 0.2 0.6 -1
v 0.3 0.6 -1
v -0.5 0.7 1
v -0.4 0.7 1
v 0.3 0.7 1
v 0.4 0.7 1
v -0.5 0.7 0.9
v -0.4 0.7 0.9
v 0.3 0.7 0.9
v 0.4 0.7 0.9
v 0.3 1.1 1
v 0.4 1.1 1
v 0.3 1.1 0.9
v 0.4 1.1 0.9
v -0.5 1.2 1
v -0.4 1.2 1
v 0.2 1.2 1
v 0.3 1.2 1
v -0.5 1.2 0.9
v -0.4 1.2 0.9
v 0.2 1.2 0.9
v 0.3 1.2 0.9
v 0.4 1.2 0.9
v 0.3 1.2 0.8
v 0.4 1.2 0.8
v -0.4 1.2 -0.9
v -0.3 1.2 -0.9
v 0.2 1.2 -0.9
v 0.3 1.2 -0.9
v -0.4 1.2 -1
v -0.3 1.2 -1
v 0.2 1.2 -1
v 0.3 1.2 -1
v -0.4 1.3 1
v -0.3 1.3 1
v 0.1 1.3 1
v 0.2 1.3 1
v -0.5 1.3 0.9
v -0.4 1.3 0.9
v -0.3 1.3 0.9
v 0.1 1.3 0.9
v 0.2 1.3 0.9
v 0.3 1.3 0.9
v -0.5 1.3 0.8
v -0.4 1.3 0.8
v 0.2 1.3 0.8
v 0.3 1.3 0.8
v 0.4 1.3 0.8
v 0.3 1.3 0.7
v 0.4 1.3 0.7
v -0.4 1.3 -0.8
v 0.3 1.3 -0.8
v -0.4 1.3 -0.9
v -0.3 1.3 -0.9
v 0.2 1.3 -0.9
v 0.3 1.3 -0.9
v -0.3 1.3 -1
v 0.2 1.3 -1
v -0.3 1.4 1
v 0.1 1.4 1
v -0.4 1.4 0.9
v -0.3 1.4 0.9
v 0.1 1.4 0.9
v 0.2 1.4 0.9
v -0.5 1.4 0.8
v -0.4 1.4 0.8
v 0.2 1.4 0.8
v 0.3 1.4 0.8
v 0.3 1.4 0.7
v 0.4 1.4 0.7
v -0.5 1.4 -0.8
v -0.4 1.4 -0.8
v 0.4 1.4 -0.8

# faces
f 4/4/1 2/4/1 1/4/1
f 6/4/1 4/4/1 3/4/1
f 8/4/1 6/4/1 5/4/1
f 9/4/1 8/4/1 7/4/1
f 10/4/1 6/4/1 8/4/1
f 10/4/1 8/4/1 9/4/1
f 11/4/1 6/4/1 10/4/1
f 12/4/1 4/4/1 6/4/1
f 12/4/1 6/4/1 11/4/1
f 13/4/1 2/4/1 4/4/1
f 13/4/1 4/4/1 12/4/1
f 14/3/1 13/3/1 12/3/1
f 15/3/1 13/3/1 14/3/1
f 19/4/1 17/4/1 16/4/1
f 20/4/1 17/4/1 19/4/1
f 24/4/1 19/4/1 18/4/1
f 25/4/1 19/4/1 24/4/1
f 26/4/1 22/4/1 21/4/1
f 28/4/1 24/4/1 23/4/1
f 29/4/1 24/4/1 28/4/1
f 32/4/1 27/4/1 26/4/1
f 32/4/1 26/4/1 21/4/1
f 33/4/1 27/4/1 32/4/1
f 34/4/1 31/4/1 30/4/1
f 35/4/1 31/4/1 34/4/1
f 37/4/1 32/4/1 21/4/1
f 38/4/1 32/4/1 37/4/1
f 39/4/1 36/4/1 35/4/1
f 40/4/1 36/4/1 39/4/1
f 44/4/1 42/4/1 41/4/1
f 45/4/1 42/4/1 44/4/1
f 48/4/1 44/4/1 43/4/1
f 49/4/1 44/4/1 48/4/1
f 50/4/1 47/4/1 46/4/1
f 51/4/1 47/4/1 50/4/1
f 56/4/1 53/4/1 52/4/1
f 57/4/1 53/4/1 56/4/1
f 58/4/1 55/4/1 54/4/1
f 59/4/1 55/4/1 58/4/1
f 62/4/1 61/4/1 60/4/1
f 63/4/1 61/4/1 62/4/1
f 64/4/2 65/4/2 66/4/2
f 66/4/2 65/4/2 67/4/2
f 68/4/2 69/4/2 70/4/2
f 70/4/2 69/4/2 71/4/2
f 72/4/2 73/4/2 75/4/2
f 75/4/2 73/4/2 76/4/2
f 74/4/2 75/4/2 79/4/2
f 79/4/2 75/4/2 80/4/2
f 77/4/2 78/4/2 81/4/2
f 81/4/2 78/4/2 82/4/2
f 83/4/2 84/4/2 87/4/2
f 87/4/2 84/4/2 88/4/2
f 85/4/2 86/4/2 90/4/2
f 90/4/2 86/4/2 91/4/2
f 88/4/2 89/4/2 92/4/2
f 92/4/2 89/4/2 93/4/2
f 94/4/2 95/4/2 97/4/2
f 97/4/2 95/4/2 98/4/2
f 96/4/2 97/4/2 102/4/2
f 102/4/2 97/4/2 103/4/2
f 99/4/2 100/4/2 104/4/2
f 101/4/2 102/4/2 106/4/2
f 106/4/2 102/4/2 107/4/2
f 108/4/2 109/4/2 110/4/2
f 110/4/2 109/4/2 111/4/2
f 104/4/2 105/4/2 113/4/2
f 99/4/2 104/4/2 113/4/2
f 113/4/2 105/4/2 114/4/2
f 111/4/2 112/4/2 115/4/2
f 115/4/2 112/4/2 116/4/2
f 99/4/2 113/4/2 118/4/2
f 118/4/2 113/4/2 119/4/2
f 116/4/2 117/4/2 120/4/2
f 120/4/2 117/4/2 121/4/2
f 122/4/2 123/4/2 125/4/2
f 124/4/2 125/4/2 127/4/2
f 126/4/2 127/4/2 129/4/2
f 128/4/2 129/4/2 130/4/2
f 129/4/2 127/4/2 131/4/2
f 130/4/2 129/4/2 131/4/2
f 131/4/2 127/4/2 132/4/2
f 127/4/2 125/4/2 133/4/2
f 132/4/2 127/4/2 133/4/2
f 133/4/2 125/4/2 134/4/2
f 125/4/2 123/4/2 135/4/2
f 134/4/2 125/4/2 135/4/2
f 135/4/2 123/4/2 136/4/2
f 136/4/2 123/4/2 137/4/2
f 141/4/3 139/4/3 138/4/3
f 142/4/3 139/4/3 141/4/3
f 145/4/3 141/4/3 140/4/3
f 145/4/3 143/4/3 142/4/3
f 145/4/3 142/4/3 141/4/3
f 146/4/3 143/4/3 145/4/3
f 149/4/3 145/4/3 144/4/3
f 149/4/3 147/4/3 146/4/3
f 149/4/3 146/4/3 145/4/3
f 150/4/3 149/4/3 148/4/3
f 151/4/3 147/4/3 149/4/3
f 151/4/3 149/4/3 150/4/3
f 152/4/3 147/4/3 151/4/3
f 153/4/3 147/4/3 152/4/3
f 154/4/3 152/4/3 151/4/3
f 155/4/3 152/4/3 154/4/3
f 156/4/3 152/4/3 155/4/3
f 157/4/3 152/4/3 156/4/3
f 158/4/3 156/4/3 155/4/3
f 159/4/3 156/4/3 158/4/3
f 160/4/3 156/4/3 159/4/3
f 161/4/3 156/4/3 160/4/3
f 162/4/3 160/4/3 159/4/3
f 163/4/3 160/4/3 162/4/3
f 169/4/3 165/4/3 164/4/3
f 170/4/3 165/4/3 169/4/3
f 171/4/3 167/4/3 166/4/3
f 172/4/3 167/4/3 171/4/3
f 175/4/3 169/4/3 168/4/3
f 176/4/3 169/4/3 175/4/3
f 177/4/3 173/4/3 172/4/3
f 178/4/3 173/4/3 177/4/3
f 179/4/3 175/4/3 174/4/3
f 180/4/3 175/4/3 179/4/3
f 185/4/3 182/4/3 181/4/3
f 186/4/3 182/4/3 185/4/3
f 189/4/3 184/4/3 183/4/3
f 190/4/3 184/4/3 189/4/3
f 191/4/3 187/4/3 186/4/3
f 192/4/3 187/4/3 191/4/3
f 195/4/3 189/4/3 188/4/3
f 196/4/3 189/4/3 195/4/3
f 197/4/3 193/4/3 192/4/3
f 198/4/3 193/4/3 197/4/3
f 199/4/3 195/4/3 194/4/3
f 200/4/3 195/4/3 199/4/3
f 206/4/3 202/4/3 201/4/3
f 207/4/3 202/4/3 206/4/3
f 208/3/3 204/3/3 203/3/3
f 209/3/3 204/3/3 208/3/3
f 210/4/3 206/4/3 205/4/3
f 211/4/3 206/4/3 210/4/3
f 216/4/3 213/4/3 212/4/3
f 217/4/3 213/4/3 216/4/3
f 220/4/3 215/4/3 214/4/3
f 221/4/3 215/4/3 220/4/3
f 222/4/3 218/4/3 217/4/3
f 223/4/3 218/4/3 222/4/3
f 224/4/3 220/4/3 219/4/3
f 225/4/3 220/4/3 224/4/3
f 228/4/3 227/4/3 226/4/3
f 229/4/3 227/4/3 228/4/3
f 234/4/3 231/4/3 230/4/3
f 235/4/3 231/4/3 234/4/3
f 236/4/3 233/4/3 232/4/3
f 237/4/3 233/4/3 236/4/3
f 238/4/4 239/4/4 241/4/4
f 239/3/4 240/3/4 242/3/4
f 241/4/4 239/4/4 242/4/4
f 242/3/4 240/3/4 243/3/4
f 238/4/4 241/4/4 244/4/4
f 242/4/4 243/4/4 245/4/4
f 238/4/4 244/4/4 246/4/4
f 244/4/4 245/4/4 246/4/4
f 245/4/4 243/4/4 247/4/4
f 246/4/4 245/4/4 247/4/4
f 248/4/4 249/4/4 252/4/4
f 252/4/4 249/4/4 253/4/4
f 250/4/4 251/4/4 254/4/4
f 254/4/4 251/4/4 255/4/4
f 256/4/4 257/4/4 260/4/4
f 260/4/4 257/4/4 261/4/4
f 258/4/4 259/4/4 262/4/4
f 262/4/4 259/4/4 263/4/4
f 264/4/4 265/4/4 267/4/4
f 267/4/4 265/4/4 268/4/4
f 268/4/4 265/4/4 269/4/4
f 269/4/4 265/4/4 270/4/4
f 267/2/4 268/2/4 272/2/4
f 268/1/4 269/1/4 272/1/4
f 269/2/4 270/2/4 273/2/4
f 272/1/4 269/1/4 273/1/4
f 273/2/4 270/2/4 274/2/4
f 274/2/4 270/2/4 275/2/4
f 272/2/4 273/2/4 276/2/4
f 273/2/4 274/2/4 276/2/4
f 276/2/4 274/2/4 277/2/4
f 274/1/4 275/1/4 278/1/4
f 277/2/4 274/2/4 278/2/4
f 275/2/4 270/2/4 279/2/4
f 278/1/4 275/1/4 279/1/4
f 276/1/4 277/1/4 280/1/4
f 272/2/4 276/2/4 280/2/4
f 277/2/4 278/2/4 281/2/4
f 280/1/4 277/1/4 281/1/4
f 278/2/4 279/2/4 281/2/4
f 266/4/4 267/4/4 282/4/4
f 267/2/4 272/2/4 282/2/4
f 280/2/4 281/2/4 282/2/4
f 272/2/4 280/2/4 282/2/4
f 282/2/4 281/2/4 283/2/4
f 281/2/4 279/2/4 284/2/4
f 283/2/4 281/2/4 284/2/4
f 279/2/4 270/2/4 285/2/4
f 284/2/4 279/2/4 285/2/4
f 266/4/4 282/4/4 286/4/4
f 282/1/4 283/1/4 287/1/4
f 286/4/4 282/4/4 287/4/4
f 283/2/4 284/2/4 288/2/4
f 287/1/4 283/1/4 288/1/4
f 284/1/4 285/1/4 289/1/4
f 288/2/4 284/2/4 289/2/4
f 285/2/4 270/2/4 290/2/4
f 289/1/4 285/1/4 290/1/4
f 270/4/4 271/4/4 291/4/4
f 290/2/4 270/2/4 291/2/4
f 291/4/4 271/4/4 292/4/4
f 289/4/4 290/4/4 293/4/4
f 290/4/4 291/4/4 293/4/4
f 287/4/4 288/4/4 293/4/4
f 288/4/4 289/4/4 293/4/4
f 293/4/4 291/4/4 294/4/4
f 298/4/5 296/4/5 295/4/5
f 299/4/5 296/4/5 298/4/5
f 302/4/5 298/4/5 297/4/5
f 302/4/5 300/4/5 299/4/5
f 302/4/5 299/4/5 298/4/5
f 303/4/5 300/4/5 302/4/5
f 306/4/5 302/4/5 301/4/5
f 306/4/5 304/4/5 303/4/5
f 306/4/5 303/4/5 302/4/5
f 307/4/5 304/4/5 306/4/5
f 309/4/5 306/4/5 305/4/5
f 309/4/5 308/4/5 307/4/5
f 309/4/5 307/4/5 306/4/5
f 310/4/5 308/4/5 309/4/5
f 316/4/5 312/4/5 311/4/5
f 317/4/5 312/4/5 316/4/5
f 318/4/5 314/4/5 313/4/5
f 319/4/5 314/4/5 318/4/5
f 322/4/5 316/4/5 315/4/5
f 323/4/5 316/4/5 322/4/5
f 324/4/5 320/4/5 319/4/5
f 325/4/5 320/4/5 324/4/5
f 327/4/5 322/4/5 321/4/5
f 328/4/5 322/4/5 327/4/5
f 329/4/5 326/4/5 325/4/5
f 330/4/5 326/4/5 329/4/5
f 333/4/5 332/4/5 331/4/5
f 334/4/5 332/4/5 333/4/5
f 335/4/5 332/4/5 334/4/5
f 336/4/5 332/4/5 335/4/5
f 337/4/5 335/4/5 334/4/5
f 338/4/5 335/4/5 337/4/5
f 344/4/5 340/4/5 339/4/5
f 345/4/5 340/4/5 344/4/5
f 346/4/5 342/4/5 341/4/5
f 347/4/5 342/4/5 346/4/5
f 349/4/5 344/4/5 343/4/5
f 350/4/5 344/4/5 349/4/5
f 351/4/5 348/4/5 347/4/5
f 352/4/5 348/4/5 351/4/5
f 357/4/5 354/4/5 353/4/5
f 358/4/5 354/4/5 357/4/5
f 359/4/5 356/4/5 355/4/5
f 360/4/5 356/4/5 359/4/5
f 365/4/5 362/4/5 361/4/5
f 366/4/5 362/4/5 365/4/5
f 367/4/5 364/4/5 363/4/5
f 368/4/5 364/4/5 367/4/5
f 369/4/6 370/4/6 371/4/6
f 371/4/6 370/4/6 372/4/6
f 373/4/6 374/4/6 377/4/6
f 377/4/6 374/4/6 378/4/6
f 375/4/6 376/4/6 379/4/6
f 379/4/6 376/4/6 380/4/6
f 380/4/6 381/4/6 382/4/6
f 382/4/6 381/4/6 383/4/6
f 384/4/6 385/4/6 388/4/6
f 388/4/6 385/4/6 389/4/6
f 386/4/6 387/4/6 390/4/6
f 390/4/6 387/4/6 391/4/6
f 392/4/6 393/4/6 397/4/6
f 397/4/6 393/4/6 398/4/6
f 394/4/6 395/4/6 399/4/6
f 399/4/6 395/4/6 400/4/6
f 396/4/6 397/4/6 402/4/6
f 402/4/6 397/4/6 403/4/6
f 400/4/6 401/4/6 404/4/6
f 404/4/6 401/4/6 405/4/6
f 405/4/6 406/4/6 407/4/6
f 407/4/6 406/4/6 408/4/6
f 409/4/6 410/4/6 411/4/6
f 411/4/6 410/4/6 412/4/6
f 412/4/6 410/4/6 413/4/6
f 413/4/6 410/4/6 414/4/6
f 412/4/6 413/4/6 415/4/6
f 415/4/6 413/4/6 416/4/6
f 417/4/6 418/4/6 420/4/6
f 420/4/6 418/4/6 421/4/6
f 419/4/6 420/4/6 424/4/6
f 421/4/6 422/4/6 424/4/6
f 420/4/6 421/4/6 424/4/6
f 424/4/6 422/4/6 425/4/6
f 424/4/6 425/4/6 427/4/6
f 425/4/6 426/4/6 427/4/6
f 423/3/6 424/3/6 429/3/6
f 427/4/6 428/4/6 430/4/6
f 429/3/6 424/3/6 430/3/6
f 424/4/6 427/4/6 430/4/6
f 430/4/6 428/4/6 431/4/6
