# MagicaVoxel @ Ephtracy

# group
o 

# material
mtllib Glider.mtl
usemtl palette

# normals
vn -1 0 0
vn 1 0 0
vn 0 0 1
vn 0 0 -1
vn 0 -1 0
vn 0 1 0

# texcoords
vt 0.806641 0.5
vt 0.958984 0.5

# verts
v -1 1.9 1
v -1 1.9 -0.1
v -1 2 1
v -1 2 -0.1
v -0.9 1.9 -0.1
v -0.9 1.9 -0.2
v -0.9 2 -0.1
v -0.9 2 -0.2
v -0.7 1.9 -0.2
v -0.7 1.9 -0.3
v -0.7 2 -0.2
v -0.7 2 -0.3
v -0.6 1.9 -0.3
v -0.6 1.9 -0.4
v -0.6 1.9 -0.6
v -0.6 2 -0.3
v -0.6 2 -0.4
v -0.6 2 -0.6
v -0.5 1.9 -0.6
v -0.5 1.9 -0.7
v -0.5 2 -0.6
v -0.5 2 -0.7
v -0.4 1.9 -0.7
v -0.4 1.9 -0.8
v -0.4 2 -0.7
v -0.4 2 -0.8
v -0.3 1.9 -0.8
v -0.3 1.9 -0.9
v -0.3 2 -0.8
v -0.3 2 -0.9
v -0.2 1.9 -0.9
v -0.2 1.9 -1
v -0.2 2 -0.9
v -0.2 2 -1
v 0.1 1.9 -0.9
v 0.1 1.9 -1
v 0.1 2 -0.9
v 0.1 2 -1
v 0.3 1.9 -0.7
v 0.3 1.9 -0.9
v 0.3 2 -0.7
v 0.3 2 -0.9
v 0.5 1.9 -0.6
v 0.5 1.9 -0.7
v 0.5 2 -0.6
v 0.5 2 -0.7
v 0.6 1.9 -0.5
v 0.6 1.9 -0.6
v 0.6 2 -0.5
v 0.6 2 -0.6
v 0.7 1.9 -0.3
v 0.7 1.9 -0.5
v 0.7 2 -0.3
v 0.7 2 -0.5
v 0.8 1.9 -0.2
v 0.8 1.9 -0.3
v 0.8 2 -0.2
v 0.8 2 -0.3
v 0.9 1.9 -0.1
v 0.9 1.9 -0.2
v 0.9 2 -0.1
v 0.9 2 -0.2
v 1 1.9 1
v 1 1.9 -0.1
v 1 2 1
v 1 2 -0.1
v -1 1.9 1
v -1 2 1
v -0.7 1.9 1
v -0.7 2 1
v -0.5 1.9 1
v -0.5 2 1
v -0.3 1.9 1
v -0.3 2 1
v -0.2 1.9 1
v -0.2 2 1
v 0.2 1.9 1
v 0.2 2 1
v 0.3 1.9 1
v 0.3 2 1
v 0.5 1.9 1
v 0.5 2 1
v 0.6 1.9 1
v 0.6 2 1
v 1 1.9 1
v 1 2 1
v -1 1.9 -0.1
v -1 2 -0.1
v -0.9 1.9 -0.1
v -0.9 2 -0.1
v 0.9 1.9 -0.1
v 0.9 2 -0.1
v 1 1.9 -0.1
v 1 2 -0.1
v -0.9 1.9 -0.2
v -0.9 2 -0.2
v -0.7 1.9 -0.2
v -0.7 2 -0.2
v 0.8 1.9 -0.2
v 0.8 2 -0.2
v 0.9 1.9 -0.2
v 0.9 2 -0.2
v -0.7 1.9 -0.3
v -0.7 2 -0.3
v -0.6 1.9 -0.3
v -0.6 2 -0.3
v 0.7 1.9 -0.3
v 0.7 2 -0.3
v 0.8 1.9 -0.3
v 0.8 2 -0.3
v 0.6 1.9 -0.5
v 0.6 2 -0.5
v 0.7 1.9 -0.5
v 0.7 2 -0.5
v -0.6 1.9 -0.6
v -0.6 2 -0.6
v -0.5 1.9 -0.6
v -0.5 2 -0.6
v 0.5 1.9 -0.6
v 0.5 2 -0.6
v 0.6 1.9 -0.6
v 0.6 2 -0.6
v -0.5 1.9 -0.7
v -0.5 2 -0.7
v -0.4 1.9 -0.7
v -0.4 2 -0.7
v 0.3 1.9 -0.7
v 0.3 2 -0.7
v 0.5 1.9 -0.7
v 0.5 2 -0.7
v -0.4 1.9 -0.8
v -0.4 2 -0.8
v -0.3 1.9 -0.8
v -0.3 2 -0.8
v -0.3 1.9 -0.9
v -0.3 2 -0.9
v -0.2 1.9 -0.9
v -0.2 2 -0.9
v 0.1 1.9 -0.9
v 0.1 2 -0.9
v 0.2 1.9 -0.9
v 0.2 2 -0.9
v 0.3 1.9 -0.9
v 0.3 2 -0.9
v -0.2 1.9 -1
v -0.2 2 -1
v 0.1 1.9 -1
v 0.1 2 -1
v -1 1.9 1
v -0.7 1.9 1
v -0.5 1.9 1
v -0.3 1.9 1
v -0.2 1.9 1
v 0.2 1.9 1
v 0.3 1.9 1
v 0.5 1.9 1
v 0.6 1.9 1
v 1 1.9 1
v -1 1.9 -0.1
v -0.9 1.9 -0.1
v 0.9 1.9 -0.1
v 1 1.9 -0.1
v -0.9 1.9 -0.2
v -0.7 1.9 -0.2
v 0.8 1.9 -0.2
v 0.9 1.9 -0.2
v -0.7 1.9 -0.3
v -0.6 1.9 -0.3
v 0.7 1.9 -0.3
v 0.8 1.9 -0.3
v -0.6 1.9 -0.4
v -0.5 1.9 -0.4
v 0.6 1.9 -0.5
v 0.7 1.9 -0.5
v -0.6 1.9 -0.6
v -0.5 1.9 -0.6
v 0.5 1.9 -0.6
v 0.6 1.9 -0.6
v -0.5 1.9 -0.7
v -0.4 1.9 -0.7
v 0.3 1.9 -0.7
v 0.5 1.9 -0.7
v -0.4 1.9 -0.8
v -0.3 1.9 -0.8
v -0.3 1.9 -0.9
v -0.2 1.9 -0.9
v 0.1 1.9 -0.9
v 0.2 1.9 -0.9
v 0.3 1.9 -0.9
v -0.2 1.9 -1
v 0.1 1.9 -1
v -1 2 1
v -0.7 2 1
v -0.5 2 1
v -0.3 2 1
v -0.2 2 1
v 0.2 2 1
v 0.3 2 1
v 0.5 2 1
v 0.6 2 1
v 1 2 1
v -1 2 -0.1
v -0.9 2 -0.1
v 0.9 2 -0.1
v 1 2 -0.1
v -0.9 2 -0.2
v -0.7 2 -0.2
v 0.8 2 -0.2
v 0.9 2 -0.2
v -0.7 2 -0.3
v -0.6 2 -0.3
v 0.7 2 -0.3
v 0.8 2 -0.3
v -0.6 2 -0.4
v -0.5 2 -0.4
v 0.6 2 -0.5
v 0.7 2 -0.5
v -0.6 2 -0.6
v -0.5 2 -0.6
v 0.5 2 -0.6
v 0.6 2 -0.6
v -0.5 2 -0.7
v -0.4 2 -0.7
v 0.3 2 -0.7
v 0.5 2 -0.7
v -0.4 2 -0.8
v -0.3 2 -0.8
v -0.3 2 -0.9
v -0.2 2 -0.9
v 0.1 2 -0.9
v 0.2 2 -0.9
v 0.3 2 -0.9
v -0.2 2 -1
v 0.1 2 -1

# faces
f 3/1/1 2/1/1 1/1/1
f 4/1/1 2/1/1 3/1/1
f 7/1/1 6/1/1 5/1/1
f 8/1/1 6/1/1 7/1/1
f 11/2/1 10/2/1 9/2/1
f 12/2/1 10/2/1 11/2/1
f 16/2/1 14/2/1 13/2/1
f 17/1/1 15/1/1 14/1/1
f 17/2/1 14/2/1 16/2/1
f 18/1/1 15/1/1 17/1/1
f 21/1/1 20/1/1 19/1/1
f 22/1/1 20/1/1 21/1/1
f 25/1/1 24/1/1 23/1/1
f 26/1/1 24/1/1 25/1/1
f 29/2/1 28/2/1 27/2/1
f 30/2/1 28/2/1 29/2/1
f 33/1/1 32/1/1 31/1/1
f 34/1/1 32/1/1 33/1/1
f 35/1/2 36/1/2 37/1/2
f 37/1/2 36/1/2 38/1/2
f 39/2/2 40/2/2 41/2/2
f 41/2/2 40/2/2 42/2/2
f 43/1/2 44/1/2 45/1/2
f 45/1/2 44/1/2 46/1/2
f 47/2/2 48/2/2 49/2/2
f 49/2/2 48/2/2 50/2/2
f 51/1/2 52/1/2 53/1/2
f 53/1/2 52/1/2 54/1/2
f 55/1/2 56/1/2 57/1/2
f 57/1/2 56/1/2 58/1/2
f 59/1/2 60/1/2 61/1/2
f 61/1/2 60/1/2 62/1/2
f 63/1/2 64/1/2 65/1/2
f 65/1/2 64/1/2 66/1/2
f 69/1/3 68/1/3 67/1/3
f 70/1/3 68/1/3 69/1/3
f 71/2/3 70/2/3 69/2/3
f 72/2/3 70/2/3 71/2/3
f 73/1/3 72/1/3 71/1/3
f 74/1/3 72/1/3 73/1/3
f 75/2/3 74/2/3 73/2/3
f 76/2/3 74/2/3 75/2/3
f 77/1/3 76/1/3 75/1/3
f 78/1/3 76/1/3 77/1/3
f 79/2/3 78/2/3 77/2/3
f 80/2/3 78/2/3 79/2/3
f 81/1/3 80/1/3 79/1/3
f 82/1/3 80/1/3 81/1/3
f 83/2/3 82/2/3 81/2/3
f 84/2/3 82/2/3 83/2/3
f 85/1/3 84/1/3 83/1/3
f 86/1/3 84/1/3 85/1/3
f 87/1/4 88/1/4 89/1/4
f 89/1/4 88/1/4 90/1/4
f 91/1/4 92/1/4 93/1/4
f 93/1/4 92/1/4 94/1/4
f 95/1/4 96/1/4 97/1/4
f 97/1/4 96/1/4 98/1/4
f 99/1/4 100/1/4 101/1/4
f 101/1/4 100/1/4 102/1/4
f 103/2/4 104/2/4 105/2/4
f 105/2/4 104/2/4 106/2/4
f 107/1/4 108/1/4 109/1/4
f 109/1/4 108/1/4 110/1/4
f 111/1/4 112/1/4 113/1/4
f 113/1/4 112/1/4 114/1/4
f 115/1/4 116/1/4 117/1/4
f 117/1/4 116/1/4 118/1/4
f 119/2/4 120/2/4 121/2/4
f 121/2/4 120/2/4 122/2/4
f 123/1/4 124/1/4 125/1/4
f 125/1/4 124/1/4 126/1/4
f 127/1/4 128/1/4 129/1/4
f 129/1/4 128/1/4 130/1/4
f 131/1/4 132/1/4 133/1/4
f 133/1/4 132/1/4 134/1/4
f 135/2/4 136/2/4 137/2/4
f 137/2/4 136/2/4 138/2/4
f 139/1/4 140/1/4 141/1/4
f 141/1/4 140/1/4 142/1/4
f 141/2/4 142/2/4 143/2/4
f 143/2/4 142/2/4 144/2/4
f 145/1/4 146/1/4 147/1/4
f 147/1/4 146/1/4 148/1/4
f 159/1/5 150/1/5 149/1/5
f 160/1/5 150/1/5 159/1/5
f 161/1/5 158/1/5 157/1/5
f 162/1/5 158/1/5 161/1/5
f 163/1/5 150/1/5 160/1/5
f 164/2/5 151/2/5 150/2/5
f 164/1/5 150/1/5 163/1/5
f 165/1/5 161/1/5 157/1/5
f 166/1/5 161/1/5 165/1/5
f 167/2/5 151/2/5 164/2/5
f 168/2/5 151/2/5 167/2/5
f 169/1/5 165/1/5 157/1/5
f 170/1/5 165/1/5 169/1/5
f 171/2/5 151/2/5 168/2/5
f 172/1/5 152/1/5 151/1/5
f 172/2/5 151/2/5 171/2/5
f 173/2/5 157/2/5 156/2/5
f 173/1/5 169/1/5 157/1/5
f 174/1/5 169/1/5 173/1/5
f 175/1/5 172/1/5 171/1/5
f 176/1/5 152/1/5 172/1/5
f 176/1/5 172/1/5 175/1/5
f 177/1/5 156/1/5 155/1/5
f 177/2/5 173/2/5 156/2/5
f 178/2/5 173/2/5 177/2/5
f 179/1/5 152/1/5 176/1/5
f 180/1/5 152/1/5 179/1/5
f 181/2/5 155/2/5 154/2/5
f 181/1/5 177/1/5 155/1/5
f 182/1/5 177/1/5 181/1/5
f 183/1/5 152/1/5 180/1/5
f 184/2/5 153/2/5 152/2/5
f 184/1/5 152/1/5 183/1/5
f 185/2/5 153/2/5 184/2/5
f 186/1/5 154/1/5 153/1/5
f 186/2/5 153/2/5 185/2/5
f 187/1/5 154/1/5 186/1/5
f 188/2/5 181/2/5 154/2/5
f 188/1/5 154/1/5 187/1/5
f 189/2/5 181/2/5 188/2/5
f 190/1/5 187/1/5 186/1/5
f 191/1/5 187/1/5 190/1/5
f 192/1/6 193/1/6 202/1/6
f 202/1/6 193/1/6 203/1/6
f 200/1/6 201/1/6 204/1/6
f 204/1/6 201/1/6 205/1/6
f 203/1/6 193/1/6 206/1/6
f 193/2/6 194/2/6 207/2/6
f 206/1/6 193/1/6 207/1/6
f 200/1/6 204/1/6 208/1/6
f 208/1/6 204/1/6 209/1/6
f 207/2/6 194/2/6 210/2/6
f 210/2/6 194/2/6 211/2/6
f 200/1/6 208/1/6 212/1/6
f 212/1/6 208/1/6 213/1/6
f 211/2/6 194/2/6 214/2/6
f 194/1/6 195/1/6 215/1/6
f 214/2/6 194/2/6 215/2/6
f 199/2/6 200/2/6 216/2/6
f 200/1/6 212/1/6 216/1/6
f 216/1/6 212/1/6 217/1/6
f 214/1/6 215/1/6 218/1/6
f 215/1/6 195/1/6 219/1/6
f 218/1/6 215/1/6 219/1/6
f 198/1/6 199/1/6 220/1/6
f 199/2/6 216/2/6 220/2/6
f 220/2/6 216/2/6 221/2/6
f 219/1/6 195/1/6 222/1/6
f 222/1/6 195/1/6 223/1/6
f 197/2/6 198/2/6 224/2/6
f 198/1/6 220/1/6 224/1/6
f 224/1/6 220/1/6 225/1/6
f 223/1/6 195/1/6 226/1/6
f 195/2/6 196/2/6 227/2/6
f 226/1/6 195/1/6 227/1/6
f 227/2/6 196/2/6 228/2/6
f 196/1/6 197/1/6 229/1/6
f 228/2/6 196/2/6 229/2/6
f 229/1/6 197/1/6 230/1/6
f 197/2/6 224/2/6 231/2/6
f 230/1/6 197/1/6 231/1/6
f 231/2/6 224/2/6 232/2/6
f 229/1/6 230/1/6 233/1/6
f 233/1/6 230/1/6 234/1/6
